<svg width="100" height="100" viewBox="0 0 100 100" fill="none" xmlns="http://www.w3.org/2000/svg">
<rect x="2.5" y="2.5" width="95" height="95" rx="17.5" stroke="#A2CAA1" stroke-width="5"/>
<g clip-path="url(#clip0_166_135)">
<path d="M77.5526 33.4424C72.9776 28.8532 66.568 25.9909 59.5728 25.995H48.6754V15.1504L21.6891 42.6006H48.6752H59.5726C62.0354 42.6047 64.1881 43.5756 65.8099 45.183C67.4194 46.8067 68.3904 48.9595 68.3944 51.4222C68.3904 53.8851 67.4194 56.0377 65.8099 57.6595C64.1881 59.269 62.0354 60.2397 59.5726 60.244H21V76.8495H59.5728C66.568 76.8536 72.9776 73.9912 77.5526 69.4021C82.142 64.8271 85.0041 58.4175 85 51.4221C85.0041 44.427 82.142 38.0175 77.5526 33.4424Z" fill="#A2CAA1"/>
</g>
<defs>
<clipPath id="clip0_166_135">
<rect width="64" height="64" fill="white" transform="translate(21 14)"/>
</clipPath>
</defs>
</svg>
