<svg width="100" height="100" viewBox="0 0 100 100" fill="none" xmlns="http://www.w3.org/2000/svg">
<rect x="2.5" y="2.5" width="95" height="95" rx="17.5" stroke="#83EBD8" stroke-width="5"/>
<g clip-path="url(#clip0_53_55)">
<path d="M38.6116 29.2239C40.346 29.2239 41.7524 27.8185 41.7524 26.0821V21.1398C41.7524 19.4065 40.346 18 38.6116 18C36.8773 18 35.4698 19.4065 35.4698 21.1398V26.082C35.4698 27.8185 36.8773 29.2239 38.6116 29.2239Z" fill="#83EBD8"/>
<path d="M61.773 29.2239C63.5064 29.2239 64.9138 27.8185 64.9138 26.0821V21.1398C64.9138 19.4065 63.5063 18 61.773 18C60.0386 18 58.6311 19.4065 58.6311 21.1398V26.082C58.631 27.8185 60.0386 29.2239 61.773 29.2239Z" fill="#83EBD8"/>
<path d="M72.6563 22.4759H67.6731V26.082C67.6731 29.337 65.027 31.9842 61.773 31.9842C58.519 31.9842 55.8719 29.337 55.8719 26.082V22.4759H44.5118V26.082C44.5118 29.337 41.8645 31.9842 38.6118 31.9842C35.3578 31.9842 32.7105 29.337 32.7105 26.082V22.4759H27.3438C22.4716 22.4759 18.5219 26.4257 18.5219 31.2977V73.1781C18.5219 78.0501 22.4716 82 27.3438 82H72.6563C77.5283 82 81.4781 78.0501 81.4781 73.1781V31.2977C81.4781 26.4257 77.5283 22.4759 72.6563 22.4759ZM77.1855 73.1781C77.1855 75.6754 75.1535 77.7075 72.6561 77.7075H27.3438C24.8464 77.7075 22.8144 75.6754 22.8144 73.1781V36.873H77.1855V73.1781Z" fill="#83EBD8"/>
<path d="M47.8149 65.814H39.866V73.7629H47.8149V65.814Z" fill="#83EBD8"/>
<path d="M47.8149 53.495H39.866V61.4439H47.8149V53.495Z" fill="#83EBD8"/>
<path d="M35.4959 65.814H27.5481V73.7629H35.4959V65.814Z" fill="#83EBD8"/>
<path d="M35.4959 53.495H27.5481V61.4439H35.4959V53.495Z" fill="#83EBD8"/>
<path d="M72.4519 41.1771H64.504V49.1249H72.4519V41.1771Z" fill="#83EBD8"/>
<path d="M60.1339 41.1771H52.185V49.1249H60.1339V41.1771Z" fill="#83EBD8"/>
<path d="M61.7551 54.652L59.3909 52.8138L55.0857 58.3514L52.5297 56.3068L50.6591 58.6427L55.5846 62.5841L61.7551 54.652Z" fill="#83EBD8"/>
<path d="M72.4519 53.495H64.504V61.4439H72.4519V53.495Z" fill="#83EBD8"/>
<path d="M60.1339 65.814H52.185V73.7629H60.1339V65.814Z" fill="#83EBD8"/>
<path d="M47.8149 41.1771H39.866V49.1249H47.8149V41.1771Z" fill="#83EBD8"/>
</g>
<defs>
<clipPath id="clip0_53_55">
<rect width="64" height="64" fill="white" transform="translate(18 18)"/>
</clipPath>
</defs>
</svg>
