<svg width="100" height="100" viewBox="0 0 100 100" fill="none" xmlns="http://www.w3.org/2000/svg">
<rect x="2.5" y="2.5" width="95" height="95" rx="17.5" stroke="#E77070" stroke-width="5"/>
<g clip-path="url(#clip0_166_148)">
<path d="M62.9713 46.0005H37.0285C36.2875 46.0005 35.687 46.601 35.687 47.3417V52.6586C35.687 53.3994 36.2876 54.0004 37.0285 54.0004H62.9713C63.7123 54.0004 64.3128 53.3992 64.3128 52.6586V47.3417C64.3128 46.601 63.7121 46.0005 62.9713 46.0005Z" fill="#E77070"/>
<path d="M50 18C32.3266 18 18 32.3271 18 50C18 67.6734 32.3266 82 50 82C67.6729 82 82 67.6734 82 50C82 32.3271 67.6729 18 50 18ZM50 74C36.7661 74 26 63.2339 26 50C26 36.7666 36.7661 26 50 26C63.2334 26 74 36.7666 74 50C74 63.2339 63.2334 74 50 74Z" fill="#E77070"/>
</g>
<defs>
<clipPath id="clip0_166_148">
<rect width="64" height="64" fill="white" transform="translate(18 18)"/>
</clipPath>
</defs>
</svg>
