<svg width="100" height="100" viewBox="0 0 100 100" fill="none" xmlns="http://www.w3.org/2000/svg">
<rect x="2.5" y="2.5" width="95" height="95" rx="17.5" stroke="#C67945" stroke-width="5"/>
<path d="M31.3867 69.477H41.4659C42.1734 69.477 42.7466 68.9455 42.7466 68.2898V50.3248C42.7466 49.669 42.1734 49.1374 41.4659 49.1374H31.3867C30.6795 49.1374 30.106 49.669 30.106 50.3248V68.2898C30.106 68.9455 30.6795 69.477 31.3867 69.477Z" fill="#C67945"/>
<path d="M49.7635 69.477H59.8424C60.5499 69.477 61.1234 68.9455 61.1234 68.2897V37.6977C61.1234 37.042 60.5499 36.5105 59.8424 36.5105H49.7635C49.056 36.5105 48.4825 37.042 48.4825 37.6977V68.2897C48.4824 68.9455 49.0559 69.477 49.7635 69.477Z" fill="#C67945"/>
<path d="M68.1399 69.477H78.219C78.9263 69.477 79.5 68.9455 79.5 68.2897V23.3036C79.5 22.6479 78.9263 22.1162 78.219 22.1162H68.1399C67.4326 22.1162 66.8591 22.6479 66.8591 23.3036V68.2899C66.8591 68.9455 67.4326 69.477 68.1399 69.477Z" fill="#C67945"/>
<path d="M79.9282 74.8872H25.1128V20.0717V18H18V20.0717V74.8872V79.9282V82H20.0717H25.1128H79.9282H82V74.8872H79.9282Z" fill="#C67945"/>
</svg>
