<svg width="32" height="32" viewBox="0 0 32 32" fill="none" xmlns="http://www.w3.org/2000/svg">
<path d="M25.7893 23.384C30.5526 20.7216 32.8638 13.2791 31.7048 10.3652C27.1994 9.09805 22.694 10.719 21.5356 12.113C23.3014 5.06856 18.796 1.03914 15.9996 0C13.2044 1.03908 8.69901 5.06856 10.4648 12.113C9.30576 10.7189 4.80038 9.09799 0.295072 10.3651C-0.863428 13.2791 1.4472 20.7216 6.21051 23.3839C4.15045 24.5247 3.07782 27.2698 2.94938 28.7908C5.12645 30.3383 10.4863 31.0643 14.7985 28.5311V32H17.2018V28.5311C21.5134 31.0643 26.8738 30.3382 29.0509 28.7908C28.922 27.2698 27.8494 24.5247 25.7893 23.384Z" fill="white"/>
</svg>
