<svg width="100" height="100" viewBox="0 0 100 100" fill="none" xmlns="http://www.w3.org/2000/svg">
<rect x="2.5" y="2.5" width="95" height="95" rx="17.5" stroke="#7EBAD6" stroke-width="5"/>
<g clip-path="url(#clip0_166_141)">
<path d="M81.2005 32.0284L67.9705 18.7996C67.4626 18.2916 66.7599 18 66.0415 18H27.6195C26.2998 18 25.0273 18.2691 23.874 18.7569C22.1442 19.4899 20.6814 20.7061 19.6443 22.24C19.1274 23.0069 18.7151 23.8538 18.4325 24.7603C18.151 25.6658 18 26.6296 18 27.6184V72.3804C18 73.7014 18.2691 74.9729 18.7569 76.1249C19.4899 77.8546 20.7061 79.3186 22.24 80.3558C23.0069 80.8739 23.8549 81.2849 24.7603 81.5675C25.6658 81.8491 26.6296 82 27.6195 82H72.3804C73.7004 82.0011 74.9729 81.7298 76.1249 81.2421C77.8558 80.5101 79.3186 79.295 80.3559 77.7601C80.8739 76.9931 81.2849 76.1451 81.5675 75.2397C81.8491 74.3344 82 73.3715 82 72.3805V33.9586C82 33.2401 81.7095 32.5374 81.2005 32.0284ZM52.9736 23.5125H59.4321V31.4496H52.9736V23.5125ZM76.5428 72.3805C76.5428 72.9616 76.4258 73.5023 76.2174 73.9999C75.9031 74.7432 75.3716 75.3827 74.705 75.8334C74.3728 76.0586 74.0079 76.2342 73.6183 76.3559C73.2298 76.4775 72.8175 76.5428 72.3805 76.5428H27.6195C27.0373 76.5428 26.498 76.4256 26.0013 76.2163C25.258 75.902 24.616 75.3716 24.1667 74.705C23.9425 74.3728 23.7657 74.0079 23.6441 73.6183C23.5226 73.2298 23.4573 72.8175 23.4573 72.3805V27.6184C23.4573 27.0372 23.5744 26.4967 23.7828 26.0013C24.0969 25.2569 24.6295 24.616 25.2951 24.1667C25.6274 23.9425 25.9922 23.7646 26.3807 23.6452C26.7704 23.5236 27.1825 23.4584 27.6195 23.4584H35.6929V34.6208H64.3081V23.4585H64.9118L76.5425 35.0893V72.3805H76.5428Z" fill="#7EBAD6"/>
<path d="M67.9052 45.5344H32.0959V69.68H67.9052V45.5344Z" fill="#7EBAD6"/>
</g>
<defs>
<clipPath id="clip0_166_141">
<rect width="64" height="64" fill="white" transform="translate(18 18)"/>
</clipPath>
</defs>
</svg>
