<svg width="100" height="100" viewBox="0 0 100 100" fill="none" xmlns="http://www.w3.org/2000/svg">
<rect x="2.5" y="2.5" width="95" height="95" rx="17.5" stroke="#AA92EF" stroke-width="5"/>
<path d="M26.2204 40.6703H31.7958C33.0215 40.6703 34.0161 39.6758 34.0161 38.448C34.0161 37.221 33.0215 36.2265 31.7958 36.2265H26.2204C24.9945 36.2265 24 37.221 24 38.448C24 39.6758 24.9945 40.6703 26.2204 40.6703Z" fill="#AA92EF"/>
<path d="M30.9006 42.9954H26.744V57.0047H30.9006V42.9954Z" fill="#AA92EF"/>
<path d="M34.0162 61.5521C34.0162 60.3251 33.0216 59.3296 31.7959 59.3296H26.2204C24.9945 59.3297 24 60.3252 24 61.5521C24 62.7789 24.9945 63.7735 26.2204 63.7735H31.7958C33.0216 63.7735 34.0162 62.779 34.0162 61.5521Z" fill="#AA92EF"/>
<path d="M59.4834 37.3123H40.7784V40.4298H59.4834V37.3123Z" fill="#AA92EF"/>
<path d="M59.4834 48.7432H40.7784V51.8607H59.4834V48.7432Z" fill="#AA92EF"/>
<path d="M52.2091 60.174H40.7784V63.2915H52.2091V60.174Z" fill="#AA92EF"/>
<path d="M30.9006 27.831C30.9016 27.353 31.2904 26.9644 31.7679 26.9632H63.4563C64.5163 26.9642 65.456 27.3864 66.1526 28.0795C66.8458 28.7767 67.2684 29.7164 67.2694 30.776V38.2277C68.6318 36.2021 70.0144 34.3745 71.426 32.8005V30.776C71.4245 26.3737 67.8585 22.8077 63.4561 22.8066H31.7679C28.9919 22.8087 26.7455 25.0555 26.744 27.831V33.9016H30.9006V27.831Z" fill="#AA92EF"/>
<path d="M67.2695 57.2127V69.224C67.2685 70.2834 66.8459 71.2231 66.1528 71.9192C65.4561 72.6134 64.5164 73.0356 63.4564 73.0365H31.7679C31.2904 73.0356 30.9018 72.6469 30.9006 72.1689V66.0984H26.744V72.1689C26.7455 74.9444 28.9919 77.1911 31.7679 77.1931H63.4563C67.8585 77.1922 71.4245 73.6261 71.4261 69.2239V54.9526C70.3986 55.6305 69.1504 56.0902 67.7398 56.2881C67.5956 56.5714 67.4364 56.884 67.2695 57.2127Z" fill="#AA92EF"/>
<path d="M81.2419 29.9357C71.9838 31.2112 62.309 53.6071 57.9459 61.6454C56.8499 63.6649 59.3986 65.3504 60.5265 63.4172C61.3394 62.028 65.7725 53.2772 65.7725 53.2772C70.6025 53.4365 72.384 50.0644 70.4533 47.9697C76.944 48.1037 80.1604 44.5315 78.3201 42.3639C80.2558 42.9769 81.9333 42.5669 84.4231 41.2091C89.7373 38.3109 89.4891 28.6094 81.2419 29.9357Z" fill="#AA92EF"/>
</svg>
